<svg width="392" height="393" viewBox="0 0 392 393" fill="none" xmlns="http://www.w3.org/2000/svg">
<path d="M196.14 84.8552C199.722 84.8552 202.626 81.9488 202.626 78.3634C202.626 74.7781 199.722 71.8716 196.14 71.8716C192.557 71.8716 189.653 74.7781 189.653 78.3634C189.653 81.9488 192.557 84.8552 196.14 84.8552Z" fill="black"/>
<path d="M196.14 278.528C199.722 278.528 202.626 275.622 202.626 272.036C202.626 268.451 199.722 265.544 196.14 265.544C192.557 265.544 189.653 268.451 189.653 272.036C189.653 275.622 192.557 278.528 196.14 278.528Z" fill="black"/>
<path d="M196.14 342.264C198.472 342.264 200.363 340.372 200.363 338.037C200.363 335.703 198.472 333.811 196.14 333.811C193.808 333.811 191.917 335.703 191.917 338.037C191.917 340.372 193.808 342.264 196.14 342.264Z" stroke="black" stroke-width="3"/>
<path d="M196.14 53.478C201.513 53.478 205.869 49.1182 205.869 43.7402C205.869 38.3622 201.513 34.0024 196.14 34.0024C190.766 34.0024 186.41 38.3622 186.41 43.7402C186.41 49.1182 190.766 53.478 196.14 53.478Z" fill="black"/>
<path d="M196.14 314.234C201.513 314.234 205.869 309.874 205.869 304.496C205.869 299.118 201.513 294.758 196.14 294.758C190.766 294.758 186.41 299.118 186.41 304.496C186.41 309.874 190.766 314.234 196.14 314.234Z" fill="black"/>
<path d="M122.086 254.725L196.14 91.3472L233.977 173.577L220.464 189.266L196.14 136.249L136.14 269.332L122.086 254.725Z" fill="black"/>
<path d="M256.679 268.791L233.977 219.02L246.95 203.332L270.193 254.725L256.679 268.791Z" fill="black"/>
<path d="M164.248 217.938L172.897 197.921L196.14 226.053L288.031 116.773C348.03 191.97 308.031 292.053 221.005 311.529V292.053C279.923 276.905 317.761 209.823 286.95 148.691L196.14 255.806L164.248 217.938Z" fill="black"/>
<path d="M170.737 310.988C74.5195 288.807 48.5737 181.692 104.252 116.773L152.899 175.2L144.249 193.593L105.873 148.151C73.979 211.987 116.141 274.2 170.737 292.053V310.988Z" fill="black"/>
<path d="M102.08 83.2321V60.5107C3.70831 131.921 12.3571 269.331 108.567 332.086L124.242 296.381L109.107 283.938L100.458 302.873C32.3569 237.414 36.1407 143.823 102.08 83.2321Z" fill="black"/>
<path d="M290.733 83.7732V61.0518C389.107 132.462 380.459 269.872 284.247 332.627L268.571 296.922L283.706 284.479L292.355 303.414C360.458 237.955 356.674 144.364 290.733 83.7732Z" fill="black"/>
<path d="M196.14 386.597C301.152 386.597 386.28 301.397 386.28 196.299C386.28 91.1995 301.152 6 196.14 6C91.1286 6 6 91.1995 6 196.299C6 301.397 91.1286 386.597 196.14 386.597Z" stroke="black" stroke-width="11"/>
</svg>
