<svg width="1034" height="425" viewBox="0 0 1034 425" fill="none" xmlns="http://www.w3.org/2000/svg">
<path d="M197.836 86.5579C201.418 86.5579 204.322 83.6514 204.322 80.0661C204.322 76.4807 201.418 73.5742 197.836 73.5742C194.254 73.5742 191.35 76.4807 191.35 80.0661C191.35 83.6514 194.254 86.5579 197.836 86.5579Z" fill="#C19B63"/>
<path d="M197.836 280.231C201.418 280.231 204.322 277.324 204.322 273.739C204.322 270.154 201.418 267.247 197.836 267.247C194.254 267.247 191.35 270.154 191.35 273.739C191.35 277.324 194.254 280.231 197.836 280.231Z" fill="#C19B63"/>
<path d="M197.836 343.966C200.168 343.966 202.059 342.074 202.059 339.74C202.059 337.406 200.168 335.514 197.836 335.514C195.504 335.514 193.613 337.406 193.613 339.74C193.613 342.074 195.504 343.966 197.836 343.966Z" stroke="#C19B63" stroke-width="3"/>
<path d="M197.836 55.1806C203.21 55.1806 207.566 50.8208 207.566 45.4428C207.566 40.0648 203.21 35.7051 197.836 35.7051C192.463 35.7051 188.106 40.0648 188.106 45.4428C188.106 50.8208 192.463 55.1806 197.836 55.1806Z" fill="#C19B63"/>
<path d="M197.836 315.936C203.21 315.936 207.566 311.577 207.566 306.199C207.566 300.821 203.21 296.461 197.836 296.461C192.463 296.461 188.106 300.821 188.106 306.199C188.106 311.577 192.463 315.936 197.836 315.936Z" fill="#C19B63"/>
<path d="M123.782 256.427L197.836 93.0498L235.673 175.28L222.16 190.968L197.836 137.952L137.836 271.034L123.782 256.427Z" fill="#C19B63"/>
<path d="M258.376 270.493L235.673 220.723L248.646 205.034L271.889 256.427L258.376 270.493Z" fill="#C19B63"/>
<path d="M165.944 219.641L174.593 199.624L197.836 227.755L289.727 118.476C349.727 193.673 309.727 293.755 222.701 313.231V293.755C281.619 278.608 319.457 211.526 288.646 150.394L197.836 257.509L165.944 219.641Z" fill="#C19B63"/>
<path d="M172.434 312.69C76.2158 290.51 50.27 183.394 105.948 118.476L154.596 176.902L145.945 195.296L107.57 149.854C75.6753 213.69 117.837 275.903 172.434 293.755V312.69Z" fill="#C19B63"/>
<path d="M103.776 84.9347V62.2134C5.4046 133.624 14.0534 271.034 110.263 333.789L125.939 298.083L110.803 285.641L102.155 304.575C34.0532 239.116 37.837 145.526 103.776 84.9347Z" fill="#C19B63"/>
<path d="M292.43 85.4759V62.7544C390.804 134.165 382.155 271.575 285.943 334.33L270.268 298.624L285.403 286.182L294.051 305.116C362.154 239.657 358.37 146.067 292.43 85.4759Z" fill="#C19B63"/>
<path d="M197.836 388.3C302.848 388.3 387.977 303.1 387.977 198.001C387.977 92.9022 302.848 7.70264 197.836 7.70264C92.8249 7.70264 7.69629 92.9022 7.69629 198.001C7.69629 303.1 92.8249 388.3 197.836 388.3Z" stroke="#5A482C" stroke-width="11"/>
<path d="M524.787 132.983H499.235L494.618 152.239H466.296L494.618 64.4299H530.79L557.88 152.239H529.404L524.787 132.983ZM511.857 83.3782L502.776 115.883H521.092L512.473 83.3782H511.857ZM639.418 152.239H610.788L596.165 123.431C594.728 120.453 592.83 118.553 590.47 117.732V152.239H564.149V59.8083L590.47 58.73V111.261C592.933 110.235 595.036 108.129 596.781 104.945L609.864 81.3755L638.648 81.2215L623.717 105.253C621.357 109.053 618.792 112.083 616.021 114.342C618.381 116.91 621.049 120.813 624.025 126.05L639.418 152.239ZM720.287 152.239H691.657L677.035 123.431C675.598 120.453 673.7 118.553 671.339 117.732V152.239H645.019V59.8083L671.339 58.73V111.261C673.802 110.235 675.905 108.129 677.65 104.945L690.734 81.3755L719.517 81.2215L704.587 105.253C702.226 109.053 699.661 112.083 696.891 114.342C699.251 116.91 701.918 120.813 704.895 126.05L720.287 152.239ZM768.063 152.239L765.6 142.534C760.88 150.236 754.313 154.088 745.898 154.088C739.023 154.088 733.379 152.187 728.966 148.388C724.657 144.485 722.502 139.042 722.502 132.058C722.502 127.745 723.733 123.996 726.196 120.813C728.762 117.526 732.25 115.215 736.663 113.88C742.409 112.237 751.285 111.313 763.291 111.107C763.291 104.329 762.983 100.734 762.368 100.324C761.855 99.9133 760.213 99.7076 757.442 99.7076C755.698 99.7076 753.286 99.81 750.208 100.016C745.282 100.221 738.613 100.786 730.198 101.71C729.377 96.1644 728.762 90.2078 728.351 83.8403C733.79 82.7106 739.485 81.7863 745.436 81.0674C751.388 80.2458 756.724 79.835 761.444 79.835C769.654 79.835 775.811 81.2215 779.915 83.9944C784.02 86.6646 786.687 90.2078 787.919 94.6239C789.15 99.0397 789.715 104.637 789.612 111.415L789.458 134.061L789.92 152.239H768.063ZM754.825 136.834C757.494 136.834 760.316 136.32 763.291 135.293V123.894H762.06C754.467 123.894 750.259 124.304 749.438 125.126C748.926 125.64 748.515 126.41 748.207 127.437C748.002 128.464 747.899 129.439 747.899 130.364C747.899 132.829 748.464 134.523 749.592 135.447C750.721 136.372 752.466 136.834 754.825 136.834ZM871.993 58.73V152.239H850.29L848.135 140.377C846.084 144.382 843.056 147.566 839.054 149.928C835.052 152.291 830.537 153.471 825.509 153.471C817.505 153.471 811.091 150.596 806.268 144.845C801.548 139.093 799.188 130.466 799.188 118.964C799.188 110.235 800.215 103.045 802.266 97.3968C804.319 91.7486 806.73 87.6916 809.501 85.2268C811.245 83.6863 814.786 82.4025 820.121 81.3755C825.56 80.3485 830.383 79.835 834.59 79.835C838.284 79.835 842.082 80.1945 845.98 80.9134C845.673 75.9837 845.519 73.2622 845.519 72.7486V59.8083L871.993 58.73ZM837.053 132.829C839.823 132.829 842.697 132.366 845.673 131.442V98.013C842.697 97.6025 839.413 97.3968 835.821 97.3968C832.743 97.3968 830.794 97.6533 829.972 98.1671C828.844 98.989 827.921 101.351 827.202 105.253C826.586 109.053 826.278 113.058 826.278 117.269C826.278 123.534 827.202 127.693 829.049 129.748C830.999 131.802 833.667 132.829 837.053 132.829Z" fill="black"/>
<path d="M499.697 298.95V334.382H473.992V246.572H500.005L523.248 282.004C526.736 287.242 529.404 291.658 531.252 295.253H531.713V280.464V246.572H557.264V334.382H531.098L507.24 297.409L500.313 286.934H499.851L499.697 298.95ZM614.008 315.895C616.574 315.895 621.345 315.639 628.323 315.125C629.246 315.125 630.939 315.023 633.402 314.817L635.711 330.684C627.81 334.382 617.548 336.23 604.926 336.23C593.126 336.23 584.044 333.252 577.682 327.295C571.423 321.339 568.293 312.352 568.293 300.336C568.293 294.174 569.062 288.218 570.601 282.466C572.244 276.715 574.091 272.71 576.143 270.45C578.298 268.191 582.3 266.239 588.149 264.596C593.998 262.954 599.796 262.132 605.542 262.132C614.777 262.132 621.704 263.775 626.322 267.061C630.939 270.348 633.967 274.918 635.403 280.772C636.84 286.523 637.558 294.277 637.558 304.034C630.581 304.444 623.756 304.65 617.086 304.65H595.229C595.229 307.936 595.896 310.401 597.23 312.044C598.667 313.687 600.668 314.765 603.233 315.279C605.799 315.69 609.39 315.895 614.008 315.895ZM596.768 280.464C596.153 280.772 595.691 282.107 595.383 284.469C595.075 286.831 594.871 289.501 594.767 292.48H602.771C607.595 292.48 611.083 292.428 613.238 292.326C613.238 287.396 612.52 283.904 611.083 281.85C609.749 279.796 607.389 278.769 604.003 278.769C601.232 278.769 598.821 279.334 596.768 280.464ZM679.454 305.266C679.454 307.115 679.506 309.066 679.608 311.12C679.71 313.071 680.018 314.303 680.531 314.817C681.249 315.536 683.764 315.895 688.074 315.895L693.307 315.741C694.231 320.671 694.692 326.371 694.692 332.841C692.743 333.56 689.869 334.228 686.073 334.844C682.379 335.46 678.838 335.768 675.452 335.768C668.372 335.768 662.882 334.228 658.982 331.147C655.186 327.963 653.287 323.084 653.287 316.512V278.615H641.743V264.596L653.287 263.518L660.214 246.572L679.454 245.494V263.518H695.77V278.615H679.454V305.266ZM747.202 334.382H713.954L698.254 263.518H725.191L732.117 316.204H732.579L740.429 263.518H768.905L777.217 316.05H777.832L784.297 263.518H811.388L795.688 334.382H762.286L754.898 291.555H754.436L747.202 334.382ZM852.804 336.384C840.49 336.384 831.255 333.509 825.098 327.757C819.043 321.903 816.016 312.712 816.016 300.182C816.016 293.302 816.632 287.294 817.863 282.158C819.197 276.921 820.788 273.275 822.635 271.221C824.995 268.55 829.305 266.343 835.564 264.596C841.927 262.85 847.878 261.978 853.419 261.978C866.657 261.978 876.098 264.802 881.741 270.45C887.385 276.099 890.207 285.137 890.207 297.563C890.207 310.914 887.18 320.723 881.126 326.987C875.071 333.252 865.631 336.384 852.804 336.384ZM853.266 318.36C857.268 318.36 859.884 316.974 861.116 314.201C862.347 311.326 862.963 306.293 862.963 299.104C862.963 294.072 862.706 290.221 862.193 287.55C861.68 284.777 860.705 282.774 859.269 281.542C857.935 280.207 855.831 279.539 852.958 279.539C848.853 279.539 846.493 279.899 845.877 280.618C845.056 281.336 844.39 283.596 843.876 287.396C843.363 291.196 843.107 295.15 843.107 299.258C843.107 306.242 843.774 311.172 845.108 314.047C846.545 316.922 849.264 318.36 853.266 318.36ZM944.118 261.978C945.458 261.978 946.843 262.132 948.274 262.44C949.813 262.748 950.945 263.108 951.66 263.518C951.66 265.777 951.407 269.526 950.891 274.764C950.384 279.899 949.922 283.545 949.506 285.701C948.482 285.599 946.581 285.547 943.81 285.547C937.346 285.547 931.605 285.907 926.571 286.626V334.382H900.254V263.518H922.261L925.34 274.918H925.493C928.472 271.015 931.65 267.883 935.037 265.521C938.423 263.158 941.456 261.978 944.118 261.978ZM1033.85 334.382H1005.22L990.594 305.574C989.154 302.595 987.262 300.696 984.899 299.874V334.382H958.578V241.951L984.899 240.873V293.404C987.361 292.377 989.462 290.271 991.21 287.088L1004.29 263.518L1033.08 263.364L1018.15 287.396C1015.78 291.196 1013.22 294.226 1010.45 296.485C1012.81 299.052 1015.47 302.955 1018.45 308.193L1033.85 334.382Z" fill="black"/>
</svg>
